Coordinates
version=1
nRows=16
nColumns=28
inDegrees=yes

Units are S.I. units (second, meters, Newtons, ...)
Angles are in degrees.

endheader
time	pelvis_tilt	pelvis_list	pelvis_rotation	pelvis_tx	pelvis_ty	pelvis_tz	hip_flexion_r	hip_adduction_r	hip_rotation_r	knee_angle_r	ankle_angle_r	subtalar_angle_r	mtp_angle_r	hip_flexion_l	hip_adduction_l	hip_rotation_l	knee_angle_l	socket_flexion	socket_adduction	socket_rotation	socket_tx	socket_ty	socket_tz	foot_flex	lumbar_extension	lumbar_bending	lumbar_rotation
      0.00000000	      3.37942634	     -2.83105041	     -1.29505755	     -0.87079501	      0.99589211	      0.27676255	    -27.79349711	      6.28981798	     -9.00591041	     -4.28946985	     13.77086751	      1.11980366	     10.41222583	     26.91329681	     -0.60853232	      7.14804970	    -11.41272606	     -3.28444846	      0.00000000	      0.00000000	      0.00000000	     -0.00355795	      0.00000000	      1.04903479	    -15.16416100	      1.65753996	      3.67479795
      0.00416667	      3.32122182	     -2.86938848	     -1.23911470	     -0.86524788	      0.99517469	      0.27629794	    -27.84787109	      6.30943739	     -8.93942426	     -4.63368391	     13.65790615	      1.05120123	     10.41355206	     26.70737476	     -0.56996995	      7.26217761	    -11.39619024	     -3.29688810	      0.00000000	      0.00000000	      0.00000000	     -0.00391839	      0.00000000	      0.77301654	    -15.05474185	      1.68090152	      3.67389076
      0.00833333	      3.25832779	     -2.90461759	     -1.15745746	     -0.85929635	      0.99442465	      0.27578848	    -27.95128991	      6.34361162	     -8.87946737	     -4.89528026	     13.59905002	      1.02514090	     10.41227796	     26.50477388	     -0.51241423	      7.27852318	    -11.43221072	     -3.31068423	      0.00000000	      0.00000000	      0.00000000	     -0.00431527	      0.00000000	      0.67372529	    -14.88420443	      1.70219454	      3.67540734
      0.01250000	      3.18889720	     -3.09884323	     -1.22638068	     -0.85349693	      0.99375604	      0.27531247	    -27.76431482	      6.40972676	     -8.88041235	     -5.71554729	     13.28926512	      0.52627544	     10.59700541	     26.15384918	     -0.69097479	      7.42895919	    -11.02295168	     -3.08680117	      0.00000000	      0.00000000	      0.00000000	     -0.00511203	      0.00000000	      0.17173458	    -14.80924988	      1.92172508	      3.75257117
      0.01666667	      3.12451392	     -3.12208631	     -1.14141962	     -0.84712958	      0.99296782	      0.27478984	    -27.87438730	      6.43467194	     -8.79046838	     -6.00344488	     13.21791604	      0.50992786	     10.59708314	     25.93130075	     -0.62051160	      7.46601059	    -11.06905536	     -3.11124676	      0.00000000	      0.00000000	      0.00000000	     -0.00559684	      0.00000000	      0.06911233	    -14.61871318	      1.92198450	      3.75251171
      0.02083333	      3.09240767	     -3.19912984	     -1.16919882	     -0.84109599	      0.99240736	      0.27431350	    -27.73205488	      6.40384742	     -8.84354305	     -6.81694440	     12.87815369	      0.25642551	     10.59325327	     25.62388529	     -0.65634447	      7.60832782	    -10.97132857	     -3.11526822	      0.00000000	      0.00000000	      0.00000000	     -0.00613257	      0.00000000	     -0.52755398	    -14.59444558	      1.97797662	      3.74614234
      0.02500000	      3.03574647	     -3.29688967	     -1.16104126	     -0.83473024	      0.99171191	      0.27376192	    -27.63838679	      6.41851031	     -8.86409048	     -7.52012870	     12.61880698	     -0.03549975	     10.64664557	     25.32200969	     -0.69447577	      7.69488258	    -10.82641388	     -3.01960217	      0.00000000	      0.00000000	      0.00000000	     -0.00685195	      0.00000000	     -0.81167526	    -14.47084119	      2.08139349	      3.76811205
      0.02916667	      2.82074376	     -3.41574172	     -1.35046541	     -0.82800724	      0.99102289	      0.27357288	    -27.48478481	      6.42412174	     -8.32783787	     -8.02315160	     12.00408057	     -0.95323923	     11.44507386	     24.92266919	     -0.87805792	      7.69564594	    -10.03717167	     -2.52480999	      0.00000000	      0.00000000	      0.00000000	     -0.00782292	      0.00000000	     -1.07741311	    -14.12895670	      2.15136713	      4.01358609
      0.03333333	      2.79555819	     -3.44410867	     -1.28870928	     -0.82145526	      0.99044317	      0.27301588	    -27.47048953	      6.41271401	     -8.28458392	     -8.62987957	     11.77366874	     -1.08033080	     11.45560677	     24.62736491	     -0.82391101	      7.83585777	    -10.06567739	     -2.55999712	      0.00000000	      0.00000000	      0.00000000	     -0.00849184	      0.00000000	     -1.40814762	    -14.02877264	      2.14444282	      3.99711947
      0.03750000	      2.76683310	     -3.49431780	     -1.23826610	     -0.81493719	      0.98990815	      0.27245478	    -27.36126688	      6.40069894	     -8.32124372	     -9.40735152	     11.44204720	     -1.32347001	     11.46681121	     24.32538622	     -0.80082830	      7.95173638	    -10.03784155	     -2.52932496	      0.00000000	      0.00000000	      0.00000000	     -0.00923189	      0.00000000	     -1.75808452	    -13.94593053	      2.18076825	      3.96819349
      0.04166667	      2.71459314	     -3.52559231	     -1.19232983	     -0.80829063	      0.98942726	      0.27190753	    -27.23218287	      6.37461391	     -8.30256752	    -10.16699866	     11.10262317	     -1.57749813	     11.48364946	     24.02312379	     -0.76441462	      8.09451451	     -9.98134461	     -2.49500314	      0.00000000	      0.00000000	      0.00000000	     -0.00997319	      0.00000000	     -2.04259380	    -13.82186554	      2.19523795	      3.93348074
      0.04583333	      2.65868200	     -3.54288141	     -1.15162387	     -0.80167928	      0.98896624	      0.27136817	    -27.08319243	      6.33036116	     -8.27622610	    -10.95815720	     10.72490934	     -1.87211792	     11.49963316	     23.73331606	     -0.71895120	      8.22604521	     -9.92755521	     -2.41270121	      0.00000000	      0.00000000	      0.00000000	     -0.01075936	      0.00000000	     -2.32383892	    -13.68404103	      2.18707695	      3.88823243
      0.05000000	      2.39022840	     -3.53275909	     -1.18466542	     -0.79473181	      0.98841257	      0.27086008	    -26.72476251	      6.25376422	     -8.04713475	    -11.70165801	     10.02818489	     -2.91210852	     11.91749180	     23.51581460	     -0.68438080	      8.24171544	     -9.47737942	     -2.04478365	      0.00000000	      0.00000000	      0.00000000	     -0.01161585	      0.00000000	     -2.54833921	    -13.25010064	      2.20275852	      3.84340136
      0.05416667	      2.37227506	     -3.55999361	     -1.16874912	     -0.78811395	      0.98815262	      0.27039852	    -26.55552042	      6.20604098	     -7.97623301	    -12.56959850	      9.52302212	     -3.22486715	     11.98169526	     23.20394084	     -0.66609527	      8.34181093	     -9.49780094	     -2.01581716	      0.00000000	      0.00000000	      0.00000000	     -0.01245040	      0.00000000	     -2.80022918	    -13.16770831	      2.15131117	      3.80600839
      0.05833333	      2.33953440	     -3.50958772	     -1.10015305	     -0.78150919	      0.98798047	      0.26989732	    -26.38881737	      6.12514403	     -7.84453332	    -13.38891483	      9.08294002	     -3.48622874	     12.00490447	     22.91949141	     -0.55013013	      8.49241238	     -9.54052816	     -1.96923238	      0.00000000	      0.00000000	      0.00000000	     -0.01313063	      0.00000000	     -3.01049133	    -13.06219923	      2.04791234	      3.75297270
      0.06250000	      2.06162725	     -3.46482690	     -1.18547425	     -0.77462545	      0.98774032	      0.26965022	    -25.98381197	      6.03881660	     -7.37115967	    -14.12885695	      7.88137871	     -5.06673569	     13.11151087	     22.78300904	     -0.51878023	      8.43427570	     -9.31919700	     -1.74264769	      0.00000000	      0.00000000	      0.00000000	     -0.01379932	      0.00000000	     -3.17287493	    -12.62454164	      1.95327413	      3.72029326
